<svg xmlns="http://www.w3.org/2000/svg" width="21" height="21" fill="none"><path fill="url(#a)" fill-opacity=".25" stroke="#56CCF2" d="M.5 13.5a1 1 0 1 1 2 0 1 1 0 0 1-2 0Zm6 0a1 1 0 1 1 2 0 1 1 0 0 1-2 0Zm6 0a1 1 0 1 1 2 0 1 1 0 0 1-2 0Zm6 0a1 1 0 1 1 2 0 1 1 0 0 1-2 0Zm-18 6a1 1 0 1 1 2 0 1 1 0 0 1-2 0Zm6 0a1 1 0 1 1 2 0 1 1 0 0 1-2 0Zm6 0a1 1 0 1 1 2 0 1 1 0 0 1-2 0Zm6 0a1 1 0 1 1 2 0 1 1 0 0 1-2 0Zm-18-18a1 1 0 1 1 2 0 1 1 0 0 1-2 0Zm6 0a1 1 0 1 1 2 0 1 1 0 0 1-2 0Zm6 0a1 1 0 1 1 2 0 1 1 0 0 1-2 0Zm6 0a1 1 0 1 1 2 0 1 1 0 0 1-2 0Zm-18 6a1 1 0 1 1 2 0 1 1 0 0 1-2 0Zm6 0a1 1 0 1 1 2 0 1 1 0 0 1-2 0Zm6 0a1 1 0 1 1 2 0 1 1 0 0 1-2 0Zm6 0a1 1 0 1 1 2 0 1 1 0 0 1-2 0Z"/><defs><linearGradient id="a" x1="19.5" x2="19.5" y1="6" y2="9" gradientUnits="userSpaceOnUse"><stop stop-color="#fff"/><stop offset="1" stop-color="#fff" stop-opacity="0"/></linearGradient></defs></svg>