<svg xmlns="http://www.w3.org/2000/svg" width="32" height="33" fill="none"><path fill="#1DA1F2" d="M28.571.285H3.43A3.43 3.43 0 0 0 0 3.714v25.143a3.43 3.43 0 0 0 3.429 3.428H28.57A3.43 3.43 0 0 0 32 28.857V3.714A3.43 3.43 0 0 0 28.571.285ZM25.08 11.628c.014.2.014.407.014.607 0 6.193-4.714 13.329-13.329 13.329-2.657 0-5.121-.772-7.193-2.1a9.86 9.86 0 0 0 1.129.057 9.393 9.393 0 0 0 5.814-2 4.691 4.691 0 0 1-4.378-3.25c.721.107 1.371.107 2.114-.086a4.685 4.685 0 0 1-3.75-4.6v-.057c.621.35 1.35.564 2.114.593a4.675 4.675 0 0 1-2.085-3.9c0-.872.228-1.672.635-2.364a13.302 13.302 0 0 0 9.657 4.9c-.664-3.179 1.715-5.758 4.572-5.758 1.35 0 2.564.565 3.421 1.479a9.18 9.18 0 0 0 2.972-1.129 4.672 4.672 0 0 1-2.057 2.579 9.323 9.323 0 0 0 2.7-.729 9.86 9.86 0 0 1-2.35 2.429Z"/></svg>